<?xml version="1.0" encoding="UTF-8" standalone="no"?>
<svg
   width="200"
   height="40"
   viewBox="0 0 52.916667 10.583333"
   version="1.1"
   id="svg5"
   xmlns="http://www.w3.org/2000/svg"
   xmlns:svg="http://www.w3.org/2000/svg">
  <title
     id="pi-sh">shlogo</title>
  <path
     d="m 1.8601365,7.8233784 c 0,0 1.6808618,0 1.6808618,0 0,0 0,0 0,0 0.8126482,0 1.2224455,-0.4097973 1.2224455,-1.2224451 0,0 0,-0.4306348 0,-0.4306348 0,0 0,0 0,0 0,-0.6598422 -0.2917205,-1.048802 -0.868214,-1.1668789 0,0 -1.2849566,-0.2500455 -1.2849566,-0.2500455 0,0 0,0 0,0 -0.055566,-0.01389 -0.083349,-0.048621 -0.083349,-0.1111312 0,0 0,-0.4445254 0,-0.4445254 0,0 0,0 0,0 0,-0.048621 0.027783,-0.076403 0.076403,-0.076403 0,0 2.021202,0 2.021202,0 0,0 0,-0.673734 0,-0.673734 0,0 -0.5417654,-0.4167426 -0.5417654,-0.4167426 0,0 -1.541948,0 -1.541948,0 0,0 0,0 0,0 -0.8126481,0 -1.2224451,0.409797 -1.2224451,1.2224453 0,0 0,0.3959054 0,0.3959054 0,0 0,0 0,0 0,0.6598423 0.2917199,1.0488021 0.8682138,1.1599339 0,0 1.2849564,0.2639368 1.2849564,0.2639368 0,0 0,0 0,0 0.055566,0.00694 0.083349,0.048621 0.083349,0.1111312 0,0 0,0.4723079 0,0.4723079 0,0 0,0 0,0 0,0.048621 -0.027781,0.076403 -0.076403,0.076403 0,0 -2.1601162,0 -2.1601162,0 0,0 0,0.6737341 0,0.6737341 0,0 0.5417655,0.4167429 0.5417658,0.4167429 z"
     style="-inkscape-font-specification:BitGamer;fill:#ffffff;stroke:none;fill-opacity:1;stroke-width:0.99999999;stroke-miterlimit:4;stroke-dasharray:none"
     id="path1193" />
  <path
     d="m 5.5135738,6.6564983 c 0,0.7779203 0.3889598,1.1668801 1.1668794,1.1668801 0,0 1.4447081,0 1.4447081,0 0,0 0.4861998,-0.3611773 0.4861998,-0.3611773 0,0 0,-0.645951 0,-0.645951 0,0 -1.8475592,0 -1.8475592,0 0,0 0,0 0,0 -0.062512,0 -0.090294,-0.02778 -0.090294,-0.090294 0,0 0,-0.3264486 0,-0.3264486 0,0 2.0767672,0 2.0767672,0 0,0 0,-1.1043677 0,-1.1043677 0,0 0,0 0,0 0,-0.7779196 -0.3889598,-1.1668795 -1.1668794,-1.1668795 0,0 -0.9029422,0 -0.9029422,0 0,0 0,0 0,0 -0.7779196,0 -1.1668794,0.3889599 -1.1668794,1.1668795 0,0 0,1.3613588 0,1.3613588 0,0 0,0 -3e-7,-3e-7 z M 6.6735076,5.2256827 c 0,0 0,0 0,0 0,-0.062512 0.02778,-0.090294 0.090294,-0.090294 0,0 0.7362453,0 0.7362453,0 0,0 0,0 0,0 0.062511,0 0.090294,0.02778 0.090294,0.090294 0,0 0,0.2986649 0,0.2986649 0,0 -0.916834,0 -0.916834,0 0,0 0,-0.2986649 7e-7,-0.2986649 z"
     style="-inkscape-font-specification:BitGamer;fill:#ffffff;stroke:none;fill-opacity:1;stroke-width:0.99999999;stroke-miterlimit:4;stroke-dasharray:none"
     id="path1190" />
  <path
     d="m 12.570406,7.8233784 c 0,0 0,-2.5282389 0,-2.5282389 0,0 0,0 0,0 0,-0.7779196 -0.38896,-1.1668795 -1.166879,-1.1668795 0,0 -1.062694,0 -1.062694,0 0,0 -0.4862001,0.3611768 -0.4862001,0.3611768 0,0 0,0.6459515 0,0.6459515 0,0 1.4655451,0 1.4655451,0 0,0 0,0 0,0 0.06251,0 0.09029,0.02778 0.09029,0.090294 0,0 0,0.3333936 0,0.3333936 0,0 -0.798756,0 -0.798756,0 0,0 0,0 0,0 -0.7779199,0 -1.1668798,0.3750686 -1.1668798,1.1321507 0,0.7570828 0.3889599,1.1321514 1.1668798,1.1321514 0,0 1.95869,0 1.95869,0 z M 10.60477,6.5245302 c 0,0 0,0 0,0 0,-0.062511 0.02778,-0.090294 0.09029,-0.090294 0,0 0.715408,0 0.715408,0 0,0 0,0.3820142 0,0.3820142 0,0 -0.715408,0 -0.715408,0 0,0 0,0 0,0 -0.06251,0 -0.09029,-0.02778 -0.09029,-0.090294 0,0 0,-0.2014256 0,-0.2014262 z"
     style="-inkscape-font-specification:BitGamer;fill:#ffffff;stroke:none;fill-opacity:1;stroke-width:0.99999999;stroke-miterlimit:4;stroke-dasharray:none"
     id="path1187" />
  <path
     d="m 13.855355,7.8233784 c 0,0 1.201607,0 1.201607,0 0,0 0,0 0,0 0.77792,0 1.16688,-0.3889598 1.16688,-1.1738257 0,0 0,0 0,0 0,-0.5903848 -0.298666,-0.9307246 -0.889051,-1.0279646 0,0 -0.708463,-0.1180774 -0.708463,-0.1180774 0,0 0,0 0,0 -0.0764,-0.00694 -0.111131,-0.083349 -0.111131,-0.2153168 0,0 0,0 0,0 0,-0.1041856 0.03473,-0.1528056 0.111131,-0.1528056 0,0 1.430817,0 1.430817,0 0,0 0,-0.6459515 0,-0.6459515 0,0 -0.4862,-0.3611768 -0.4862,-0.3611768 0,0 -1.034911,0 -1.034911,0 0,0 0,0 0,0 -0.777919,0 -1.166879,0.3889599 -1.166879,1.1738251 0,0 0,0 0,0 0,0.6042767 0.298665,0.9585078 0.895996,1.0626939 0,0 0.708463,0.1180769 0.708463,0.1180769 0,0 0,0 0,0 0.06946,0.013896 0.104186,0.076403 0.104186,0.1805886 0,0 0,0 0,0 0,0.1041856 -0.03473,0.1528056 -0.111131,0.1528056 0,0 -1.597514,0 -1.597514,0 0,0 0,0.645951 0,0.645951 0,0 0.4862,0.3611773 0.4862,0.3611773 z"
     style="-inkscape-font-specification:BitGamer;fill:#ffffff;stroke:none;fill-opacity:1;stroke-width:0.99999999;stroke-miterlimit:4;stroke-dasharray:none"
     id="path1184" />
  <path
     d="m 16.987865,6.6564983 c 0,0.7779203 0.38896,1.1668801 1.166879,1.1668801 0,0 0.972399,0 0.972399,0 0,0 0,0 0,0 0.77792,0 1.16688,-0.3889598 1.16688,-1.1668801 0,0 0,-1.3613588 0,-1.3613588 0,0 0,0 0,0 0,-0.7779196 -0.38896,-1.1668795 -1.16688,-1.1668795 0,0 -0.972399,0 -0.972399,0 0,0 0,0 0,0 -0.777919,0 -1.166879,0.3889599 -1.166879,1.1668795 0,0 0,1.3613588 0,1.3613588 0,0 0,0 0,0 z m 1.159933,-1.4308156 c 0,0 0,0 0,0 0,-0.062512 0.02778,-0.090294 0.09029,-0.090294 0,0 0.805703,0 0.805703,0 0,0 0,0 0,0 0.06251,0 0.09029,0.02778 0.09029,0.090294 0,0 0,1.5002731 0,1.5002731 0,0 0,0 0,0 0,0.062511 -0.02778,0.090294 -0.09029,0.090294 0,0 -0.805703,0 -0.805703,0 0,0 0,0 0,0 -0.06251,0 -0.09029,-0.02778 -0.09029,-0.090294 0,0 0,-1.5002731 0,-1.5002731 z"
     style="-inkscape-font-specification:BitGamer;fill:#ffffff;stroke:none;fill-opacity:1;stroke-width:0.99999999;stroke-miterlimit:4;stroke-dasharray:none"
     id="path1181" />
  <path
     d="m 22.342998,7.8233784 c 0,0 0,-2.6879901 0,-2.6879901 0,0 0.82654,0 0.82654,0 0,0 0,0 0,0 0.06251,0 0.09029,0.02778 0.09029,0.090294 0,0 0,2.5976957 0,2.5976957 0,0 1.159934,0 1.159934,0 0,0 0,-2.5282389 0,-2.5282389 0,0 0,0 0,0 0,-0.7779196 -0.38896,-1.1668795 -1.16688,-1.1668795 0,0 -2.069822,0 -2.069822,0 0,0 0,3.6951184 0,3.6951184 0,0 1.159934,0 1.159934,0 z"
     style="-inkscape-font-specification:BitGamer;fill:#ffffff;stroke:none;fill-opacity:1;stroke-width:0.99999999;stroke-miterlimit:4;stroke-dasharray:none"
     id="path1178" />
  <path
     d="m 28.267686,7.8233784 c 0,0 0,-2.5282389 0,-2.5282389 0,0 0,0 0,0 0,-0.7779196 -0.38896,-1.1668795 -1.166879,-1.1668795 0,0 -1.062694,0 -1.062694,0 0,0 -0.4862,0.3611768 -0.4862,0.3611768 0,0 0,0.6459515 0,0.6459515 0,0 1.465545,0 1.465545,0 0,0 0,0 0,0 0.06251,0 0.09029,0.02778 0.09029,0.090294 0,0 0,0.3333936 0,0.3333936 0,0 -0.798757,0 -0.798757,0 0,0 0,0 0,0 -0.77792,0 -1.16688,0.3750686 -1.16688,1.1321507 0,0.7570828 0.38896,1.1321514 1.16688,1.1321514 0,0 1.95869,0 1.95869,0 z M 26.30205,6.5245302 c 0,0 0,0 0,0 0,-0.062511 0.02778,-0.090294 0.09029,-0.090294 0,0 0.715409,0 0.715409,0 0,0 0,0.3820142 0,0.3820142 0,0 -0.715409,0 -0.715409,0 0,0 0,0 0,0 -0.06251,0 -0.09029,-0.02778 -0.09029,-0.090294 0,0 0,-0.2014256 0,-0.2014262 z"
     style="-inkscape-font-specification:BitGamer;fill:#ffffff;stroke:none;fill-opacity:1;stroke-width:0.99999999;stroke-miterlimit:4;stroke-dasharray:none"
     id="path1175" />
  <path
     d="m 29.156729,6.3161591 c 0,1.0557476 0.527874,1.5836218 1.583621,1.5836218 0,0 0,-1.0071277 0,-1.0071277 0,0 0,0 0,0 -0.284773,-0.034731 -0.423688,-0.1875349 -0.423688,-0.4584173 0,0 0,-3.7506836 0,-3.7506836 0,0 -1.159933,0 -1.159933,0 0,0 0,3.6326068 0,3.6326068 0,0 0,0 0,0 z"
     style="-inkscape-font-specification:BitGamer;fill:#ffffff;stroke:none;fill-opacity:1;stroke-width:0.99999999;stroke-miterlimit:4;stroke-dasharray:none"
     id="path1172" />
  <path
     d="m 32.789331,7.8233784 c 0,0 0,-1.8961792 0,-1.8961792 0,0 1.444708,0 1.444708,0 0,0 0,1.8961792 0,1.8961792 0,0 1.208553,0 1.208553,0 0,0 0,-4.7925406 0,-4.7925406 0,0 -1.208553,0 -1.208553,0 0,0 0,1.805885 0,1.805885 0,0 -1.444708,0 -1.444708,0 0,0 0,-1.805885 0,-1.805885 0,0 -1.208554,0 -1.208554,0 0,0 0,4.7925406 0,4.7925406 0,0 1.208554,0 1.208554,0 z"
     style="-inkscape-font-specification:BitGamer;fill:#ffffff;stroke:none;fill-opacity:1;stroke-width:0.99999999;stroke-miterlimit:4;stroke-dasharray:none"
     id="path1169" />
  <path
     d="m 39.387754,7.8233784 c 0,0 0,-2.5282389 0,-2.5282389 0,0 0,0 0,0 0,-0.7779196 -0.38896,-1.1668795 -1.16688,-1.1668795 0,0 -1.062694,0 -1.062694,0 0,0 -0.486199,0.3611768 -0.486199,0.3611768 0,0 0,0.6459515 0,0.6459515 0,0 1.465545,0 1.465545,0 0,0 0,0 0,0 0.06251,0 0.09029,0.02778 0.09029,0.090294 0,0 0,0.3333936 0,0.3333936 0,0 -0.798757,0 -0.798757,0 0,0 0,0 0,0 -0.777919,0 -1.166879,0.3750686 -1.166879,1.1321507 0,0.7570828 0.38896,1.1321514 1.166879,1.1321514 0,0 1.958691,0 1.958691,0 z M 37.422117,6.5245302 c 0,0 0,0 0,0 0,-0.062511 0.02778,-0.090294 0.09029,-0.090294 0,0 0.715409,0 0.715409,0 0,0 0,0.3820142 0,0.3820142 0,0 -0.715409,0 -0.715409,0 0,0 0,0 0,0 -0.06251,0 -0.09029,-0.02778 -0.09029,-0.090294 0,0 0,-0.2014256 0,-0.2014262 z"
     style="-inkscape-font-specification:BitGamer;fill:#ffffff;stroke:none;fill-opacity:1;stroke-width:0.99999999;stroke-miterlimit:4;stroke-dasharray:none"
     id="path1166" />
  <path
     d="m 40.999151,7.8233784 c 0,0 1.653081,0 1.653081,0 0,0 1.048803,-3.5284216 1.048803,-3.5284216 0,0 -0.118078,-0.1666968 -0.118078,-0.1666968 0,0 -1.000181,0 -1.000181,0 0,0 -0.736245,2.6879901 -0.736245,2.6879901 0,0 -0.04168,0 -0.04168,0 0,0 -0.736245,-2.6879901 -0.736245,-2.6879901 0,0 -1.000185,0 -1.000185,0 0,0 -0.118074,0.1666968 -0.118074,0.1666968 0,0 1.048798,3.5284216 1.048798,3.5284216 z"
     style="-inkscape-font-specification:BitGamer;fill:#ffffff;stroke:none;fill-opacity:1;stroke-width:0.99999999;stroke-miterlimit:4;stroke-dasharray:none"
     id="path1163" />
  <path
     d="m 44.235849,6.6564983 c 0,0.7779203 0.388962,1.1668801 1.166882,1.1668801 0,0 1.444705,0 1.444705,0 0,0 0.486199,-0.3611773 0.486199,-0.3611773 0,0 0,-0.645951 0,-0.645951 0,0 -1.847555,0 -1.847555,0 0,0 0,0 0,0 -0.06251,0 -0.0903,-0.02778 -0.0903,-0.090294 0,0 0,-0.3264486 0,-0.3264486 0,0 2.076769,0 2.076769,0 0,0 0,-1.1043677 0,-1.1043677 0,0 0,0 0,0 0,-0.7779196 -0.388962,-1.1668795 -1.166877,-1.1668795 0,0 -0.902943,0 -0.902943,0 0,0 0,0 0,0 -0.77792,0 -1.166882,0.3889599 -1.166882,1.1668795 0,0 0,1.3613588 0,1.3613588 0,0 0,0 0,0 z m 1.159933,-1.4308156 c 0,0 0,0 0,0 0,-0.062512 0.02777,-0.090294 0.0903,-0.090294 0,0 0.736245,0 0.736245,0 0,0 0,0 0,0 0.06251,0 0.09029,0.02778 0.09029,0.090294 0,0 0,0.2986649 0,0.2986649 0,0 -0.916836,0 -0.916836,0 0,0 0,-0.2986649 0,-0.2986649 z"
     style="-inkscape-font-specification:BitGamer;fill:#ffffff;stroke:none;fill-opacity:1;stroke-width:0.99999999;stroke-miterlimit:4;stroke-dasharray:none"
     id="path1160" />
  <path
     d="m 49.521526,7.8233784 c 0,0 0,-2.6879901 0,-2.6879901 0,0 0.826538,0 0.826538,0 0,0 0,0 0,0 0.06251,0 0.09029,0.02778 0.09029,0.090294 0,0 0,2.5976957 0,2.5976957 0,0 1.159938,0 1.159938,0 0,0 0,-2.5282389 0,-2.5282389 0,0 0,0 0,0 0,-0.7779196 -0.388962,-1.1668795 -1.166882,-1.1668795 0,0 -2.06982,0 -2.06982,0 0,0 0,3.6951184 0,3.6951184 0,0 1.159933,0 1.159933,0 z"
     style="-inkscape-font-specification:BitGamer;fill:#ffffff;stroke:none;fill-opacity:1;stroke-width:0.99999999;stroke-miterlimit:4;stroke-dasharray:none"
     id="path1157" />
</svg>
